<svg width="144" height="50" viewBox="0 0 144 50" fill="none" xmlns="http://www.w3.org/2000/svg">
<rect x="0.5" y="0.5" width="143" height="49" rx="17.5" fill="black"/>
<rect x="0.5" y="0.5" width="143" height="49" rx="17.5" stroke="#333333"/>
<g clip-path="url(#clip0_33941_340)">
<path d="M14.7575 31V29.384C15.0135 29.4 15.2295 29.3813 15.4055 29.328C15.5815 29.2693 15.7282 29.16 15.8455 29C15.9682 28.8347 16.0748 28.6027 16.1655 28.304C16.2562 28 16.3442 27.6187 16.4295 27.16C16.5522 26.504 16.6535 25.8213 16.7335 25.112C16.8188 24.3973 16.8908 23.696 16.9495 23.008C17.0082 22.3147 17.0535 21.664 17.0855 21.056C17.1175 20.448 17.1442 19.9227 17.1655 19.48H24.8775V31H22.9495V21.288H18.9495C18.9228 21.6453 18.8908 22.0773 18.8535 22.584C18.8215 23.0853 18.7762 23.6293 18.7175 24.216C18.6642 24.8027 18.5948 25.4107 18.5095 26.04C18.4295 26.6693 18.3308 27.288 18.2135 27.896C18.1068 28.4507 17.9788 28.9493 17.8295 29.392C17.6802 29.8293 17.4802 30.192 17.2295 30.48C16.9842 30.7627 16.6615 30.952 16.2615 31.048C15.8668 31.144 15.3655 31.128 14.7575 31ZM28.256 34.84L29.92 30.272L29.952 31.616L26.184 22.36H28.192L30.864 29.208H30.352L32.952 22.36H34.88L30.064 34.84H28.256ZM41.1051 31V28.096C40.8065 28.2453 40.4651 28.3627 40.0811 28.448C39.7025 28.5333 39.3051 28.576 38.8891 28.576C37.9985 28.576 37.2865 28.376 36.7531 27.976C36.2251 27.576 35.8838 26.9947 35.7291 26.232C35.6811 26.0133 35.6465 25.7867 35.6251 25.552C35.6091 25.312 35.5985 25.096 35.5931 24.904C35.5931 24.7067 35.5931 24.5573 35.5931 24.456V22.36H37.5451V24.456C37.5451 24.5733 37.5505 24.7467 37.5611 24.976C37.5718 25.2 37.6011 25.424 37.6491 25.648C37.7505 26.0747 37.9345 26.3867 38.2011 26.584C38.4678 26.7813 38.8491 26.88 39.3451 26.88C39.7291 26.88 40.0678 26.8293 40.3611 26.728C40.6545 26.6267 40.9025 26.4987 41.1051 26.344V22.36H43.0411V31H41.1051ZM45.2603 31V22.36H47.1083V29.288H49.5483V22.36H51.3963V29.288H53.8363V22.36H55.6843V31H45.2603ZM65.4049 22.36V31H63.5569V25.36L59.4449 31H57.9009V22.36H59.7489V27.856L63.8769 22.36H65.4049ZM71.6433 21.384C71.2006 21.384 70.7953 21.2747 70.4273 21.056C70.0593 20.8373 69.7659 20.5467 69.5473 20.184C69.3286 19.816 69.2193 19.408 69.2193 18.96H70.7233C70.7233 19.216 70.8113 19.4347 70.9873 19.616C71.1686 19.792 71.3873 19.88 71.6433 19.88C71.8993 19.88 72.1153 19.792 72.2913 19.616C72.4726 19.4347 72.5633 19.216 72.5633 18.96H74.0673C74.0673 19.408 73.9579 19.816 73.7393 20.184C73.5206 20.5467 73.2273 20.8373 72.8593 21.056C72.4913 21.2747 72.0859 21.384 71.6433 21.384ZM75.1393 22.36V31H73.2913V25.36L69.1793 31H67.6353V22.36H69.4833V27.856L73.6113 22.36H75.1393ZM80.5728 31V22.36H84.5008C84.7834 22.36 85.0474 22.376 85.2928 22.408C85.5381 22.44 85.7488 22.48 85.9248 22.528C86.3408 22.6507 86.7088 22.8907 87.0288 23.248C87.3488 23.6 87.5087 24.088 87.5087 24.712C87.5087 25.08 87.4501 25.384 87.3328 25.624C87.2154 25.8587 87.0608 26.056 86.8688 26.216C86.7781 26.2907 86.6848 26.3547 86.5888 26.408C86.4928 26.4613 86.3968 26.504 86.3008 26.536C86.5088 26.568 86.7061 26.6293 86.8928 26.72C87.1861 26.864 87.4314 27.0773 87.6288 27.36C87.8314 27.6427 87.9328 28.04 87.9328 28.552C87.9328 29.1333 87.7914 29.624 87.5087 30.024C87.2314 30.4187 86.8234 30.6933 86.2848 30.848C86.0874 30.9013 85.8608 30.9413 85.6048 30.968C85.3488 30.9893 85.0874 31 84.8208 31H80.5728ZM82.5248 29.512H84.6848C84.7968 29.512 84.9194 29.5013 85.0528 29.48C85.1861 29.4587 85.3061 29.4293 85.4128 29.392C85.6048 29.3227 85.7434 29.2 85.8288 29.024C85.9194 28.848 85.9648 28.664 85.9648 28.472C85.9648 28.2107 85.8981 28.0027 85.7648 27.848C85.6368 27.688 85.4821 27.5813 85.3008 27.528C85.1941 27.4853 85.0768 27.4613 84.9488 27.456C84.8261 27.4453 84.7248 27.44 84.6448 27.44H82.5248V29.512ZM82.5248 25.928H84.1248C84.2901 25.928 84.4501 25.92 84.6048 25.904C84.7648 25.8827 84.8981 25.848 85.0048 25.8C85.1808 25.7307 85.3088 25.6133 85.3888 25.448C85.4741 25.2827 85.5168 25.0987 85.5168 24.896C85.5168 24.6827 85.4688 24.4907 85.3728 24.32C85.2821 24.144 85.1354 24.0267 84.9328 23.968C84.7994 23.9147 84.6368 23.8853 84.4448 23.88C84.2581 23.8747 84.1381 23.872 84.0848 23.872H82.5248V25.928ZM89.5183 31L89.5103 22.36H91.4383V25.24H92.4062C92.6463 25.24 92.9156 25.2453 93.2143 25.256C93.5183 25.2667 93.7716 25.2907 93.9743 25.328C94.4596 25.4347 94.8729 25.6053 95.2143 25.84C95.5609 26.0747 95.8249 26.3813 96.0063 26.76C96.1876 27.1387 96.2783 27.5947 96.2783 28.128C96.2783 28.8907 96.0809 29.5013 95.6863 29.96C95.2916 30.4133 94.7396 30.7227 94.0303 30.888C93.8223 30.936 93.5636 30.968 93.2543 30.984C92.9449 30.9947 92.6703 31 92.4303 31H89.5183ZM91.4383 29.488H92.5983C92.7156 29.488 92.8463 29.4827 92.9903 29.472C93.1343 29.4613 93.2703 29.4373 93.3983 29.4C93.6383 29.336 93.8516 29.192 94.0383 28.968C94.2249 28.7387 94.3183 28.4587 94.3183 28.128C94.3183 27.7813 94.2249 27.496 94.0383 27.272C93.8516 27.048 93.6223 26.9013 93.3503 26.832C93.2223 26.8 93.0916 26.7787 92.9583 26.768C92.8303 26.7573 92.7103 26.752 92.5983 26.752H91.4383V29.488ZM97.1823 31V22.36H99.1103V31H97.1823ZM104.946 31.256C104.125 31.2453 103.426 31.0613 102.85 30.704C102.274 30.3467 101.824 29.8427 101.498 29.192C101.173 28.5413 100.976 27.7733 100.906 26.888C100.874 26.4347 100.872 25.928 100.898 25.368C100.925 24.808 100.984 24.2613 101.074 23.728C101.165 23.1947 101.29 22.7413 101.45 22.368C101.616 21.9947 101.832 21.6507 102.098 21.336C102.365 21.016 102.653 20.7493 102.962 20.536C103.314 20.2907 103.696 20.1013 104.106 19.968C104.522 19.8347 104.957 19.7333 105.41 19.664C105.864 19.5893 106.33 19.5227 106.81 19.464C107.29 19.4053 107.765 19.3307 108.234 19.24L108.41 20.944C108.112 21.0187 107.765 21.0773 107.37 21.12C106.981 21.1573 106.576 21.2 106.154 21.248C105.738 21.296 105.341 21.3653 104.962 21.456C104.584 21.5467 104.256 21.68 103.978 21.856C103.594 22.0907 103.301 22.4267 103.098 22.864C102.896 23.3013 102.776 23.7627 102.738 24.248C103.069 23.7573 103.48 23.4133 103.97 23.216C104.466 23.0133 104.968 22.912 105.474 22.912C106.242 22.912 106.901 23.0933 107.45 23.456C108.005 23.8187 108.429 24.312 108.722 24.936C109.021 25.5547 109.17 26.2453 109.17 27.008C109.17 27.8613 108.992 28.608 108.634 29.248C108.277 29.888 107.781 30.384 107.146 30.736C106.512 31.088 105.778 31.2613 104.946 31.256ZM105.042 29.448C105.736 29.448 106.258 29.2347 106.61 28.808C106.968 28.376 107.146 27.8027 107.146 27.088C107.146 26.3573 106.962 25.7813 106.594 25.36C106.232 24.9387 105.714 24.728 105.042 24.728C104.36 24.728 103.84 24.9387 103.482 25.36C103.125 25.7813 102.946 26.3573 102.946 27.088C102.946 27.8347 103.128 28.416 103.49 28.832C103.853 29.2427 104.37 29.448 105.042 29.448ZM114.749 31.24C113.885 31.24 113.13 31.0453 112.485 30.656C111.839 30.2667 111.338 29.7307 110.981 29.048C110.629 28.36 110.453 27.5707 110.453 26.68C110.453 25.7733 110.634 24.9787 110.997 24.296C111.359 23.6133 111.863 23.08 112.509 22.696C113.154 22.312 113.901 22.12 114.749 22.12C115.618 22.12 116.375 22.3147 117.021 22.704C117.666 23.0933 118.167 23.632 118.525 24.32C118.882 25.0027 119.061 25.7893 119.061 26.68C119.061 27.576 118.879 28.368 118.517 29.056C118.159 29.7387 117.658 30.2747 117.013 30.664C116.367 31.048 115.613 31.24 114.749 31.24ZM114.749 29.432C115.517 29.432 116.087 29.176 116.461 28.664C116.834 28.152 117.021 27.4907 117.021 26.68C117.021 25.8427 116.831 25.176 116.453 24.68C116.074 24.1787 115.506 23.928 114.749 23.928C114.231 23.928 113.805 24.0453 113.469 24.28C113.138 24.5093 112.893 24.832 112.733 25.248C112.573 25.6587 112.493 26.136 112.493 26.68C112.493 27.5173 112.682 28.1867 113.061 28.688C113.445 29.184 114.007 29.432 114.749 29.432ZM124.975 31.24C124.132 31.24 123.426 31.04 122.855 30.64C122.284 30.24 121.855 29.696 121.567 29.008C121.279 28.3147 121.135 27.5387 121.135 26.68C121.135 25.8107 121.279 25.032 121.567 24.344C121.855 23.656 122.276 23.1147 122.831 22.72C123.391 22.32 124.082 22.12 124.903 22.12C125.719 22.12 126.426 22.32 127.023 22.72C127.626 23.1147 128.092 23.656 128.423 24.344C128.754 25.0267 128.919 25.8053 128.919 26.68C128.919 27.544 128.756 28.32 128.431 29.008C128.106 29.696 127.647 30.24 127.055 30.64C126.463 31.04 125.77 31.24 124.975 31.24ZM120.807 34.84V22.36H122.511V28.424H122.751V34.84H120.807ZM124.679 29.512C125.18 29.512 125.594 29.3867 125.919 29.136C126.244 28.8853 126.484 28.5467 126.639 28.12C126.799 27.688 126.879 27.208 126.879 26.68C126.879 26.1573 126.799 25.6827 126.639 25.256C126.479 24.824 126.231 24.4827 125.895 24.232C125.559 23.976 125.132 23.848 124.615 23.848C124.124 23.848 123.724 23.968 123.415 24.208C123.106 24.4427 122.876 24.7733 122.727 25.2C122.583 25.6213 122.511 26.1147 122.511 26.68C122.511 27.24 122.583 27.7333 122.727 28.16C122.876 28.5867 123.108 28.92 123.423 29.16C123.743 29.3947 124.162 29.512 124.679 29.512Z" fill="white"/>
</g>
<defs>
<clipPath id="clip0_33941_340">
<rect width="116" height="22" fill="white" transform="translate(14 14)"/>
</clipPath>
</defs>
</svg>
