<svg width="254" height="80" viewBox="0 0 254 80" fill="none" xmlns="http://www.w3.org/2000/svg">
<path fill-rule="evenodd" clip-rule="evenodd" d="M122.607 30.0564C115.181 23.952 109.164 16.6825 104.642 8.21291C103.738 6.52595 101.634 5.88246 99.9292 6.78681C98.2423 7.69115 97.5987 9.79554 98.503 11.4999C103.477 20.7695 110.051 28.7347 118.19 35.4303C119.668 36.6477 121.877 36.439 123.094 34.9607C124.312 33.4651 124.086 31.2738 122.607 30.0564Z" fill="#F5FA93"/>
<path fill-rule="evenodd" clip-rule="evenodd" d="M118.647 6.28254C119.03 13.3086 119.378 20.3347 119.813 27.3608C119.934 29.2738 121.587 30.7347 123.5 30.613C125.413 30.4912 126.874 28.8391 126.752 26.926C126.317 19.9173 125.969 12.9087 125.587 5.88257C125.482 3.97474 123.83 2.50517 121.917 2.613C120.004 2.72082 118.526 4.36428 118.647 6.28254Z" fill="#F5FA93"/>
<path fill-rule="evenodd" clip-rule="evenodd" d="M144.467 7.70873C140.014 14.4218 134.971 20.613 129.893 26.8739C128.676 28.3695 128.901 30.5609 130.397 31.7609C131.893 32.9783 134.084 32.7522 135.284 31.2565C140.502 24.8391 145.684 18.4565 150.275 11.5521C151.336 9.95214 150.884 7.79569 149.284 6.73483C147.701 5.67396 145.528 6.10873 144.467 7.70873Z" fill="#F5FA93"/>
<path fill-rule="evenodd" clip-rule="evenodd" d="M161.713 32.6652C149.643 33.2043 136.826 33.2217 124.756 32.4565C122.843 32.3521 121.191 33.7956 121.069 35.7261C120.948 37.6391 122.408 39.2913 124.322 39.413C136.635 40.1782 149.713 40.1608 162.026 39.6217C163.939 39.5347 165.435 37.9 165.348 35.987C165.261 34.0739 163.626 32.5782 161.713 32.6652Z" fill="#F5FA93"/>
<path fill-rule="evenodd" clip-rule="evenodd" d="M118.181 34.8737C125.624 43.9867 133.329 52.9259 140.233 62.4563C141.364 64.0042 143.538 64.3519 145.103 63.2215C146.651 62.091 146.998 59.917 145.868 58.3692C138.877 48.7344 131.085 39.691 123.555 30.4736C122.338 28.9953 120.146 28.7693 118.668 29.9867C117.172 31.2041 116.964 33.3954 118.181 34.8737Z" fill="#F5FA93"/>
<path fill-rule="evenodd" clip-rule="evenodd" d="M120.435 37.5179C122.383 47.0136 122.922 56.0919 123.061 65.7093C123.079 67.6223 124.661 69.1527 126.574 69.1353C128.505 69.1005 130.035 67.5353 130 65.6048C129.861 55.5353 129.287 46.0571 127.253 36.1092C126.853 34.231 125.027 33.0135 123.131 33.4135C121.253 33.7961 120.035 35.6397 120.435 37.5179Z" fill="#F5FA93"/>
<path fill-rule="evenodd" clip-rule="evenodd" d="M120.749 36.7531C115.114 48.0226 112.21 60.5444 106.175 71.5705C105.253 73.2401 105.879 75.3617 107.566 76.2835C109.253 77.2052 111.358 76.5791 112.28 74.9095C118.349 63.8138 121.288 51.2226 126.975 39.8661C127.827 38.1443 127.132 36.0574 125.427 35.1878C123.706 34.3356 121.619 35.0313 120.749 36.7531Z" fill="#F5FA93"/>
<path fill-rule="evenodd" clip-rule="evenodd" d="M123.85 34.1956C112.633 36.1782 101.433 37.0825 90.1458 38.4217C88.2327 38.6477 86.8762 40.3695 87.1023 42.2826C87.3284 44.1956 89.0503 45.5521 90.9633 45.3261C102.372 43.9869 113.711 43.0478 125.068 41.0478C126.946 40.6999 128.215 38.8912 127.885 37.013C127.537 35.1173 125.746 33.8478 123.85 34.1956Z" fill="#F5FA93"/>
<path fill-rule="evenodd" clip-rule="evenodd" d="M131.656 28.9096C129.342 28.8053 127.151 28.6487 124.89 28.3182C122.977 28.04 121.221 29.3617 120.942 31.2574C120.664 33.153 121.986 34.927 123.881 35.2052C126.386 35.5705 128.803 35.7444 131.342 35.8487C133.255 35.9357 134.89 34.4574 134.96 32.5269C135.047 30.6139 133.569 28.9966 131.656 28.9096Z" fill="#F5FA93"/>
</svg>
