<svg width="253" height="80" viewBox="0 0 253 80" fill="none" xmlns="http://www.w3.org/2000/svg">
<path fill-rule="evenodd" clip-rule="evenodd" d="M206.296 18.8131C206.108 17.6986 205.966 16.5967 205.874 15.4948C205.736 13.8418 205.822 12.1762 205.773 10.5232C205.751 9.82191 205.667 7.99363 205.701 7.73066C206.009 5.43902 207.862 5.08835 208.404 5.02573C208.666 4.98817 211.359 4.68776 211.94 7.66814C212.653 11.3122 212.881 14.9813 212.629 18.5753C213.218 21.6308 214.224 24.6737 215.553 27.4287C220.841 38.386 230.917 39.4504 241.835 39.3502C243.514 39.3252 244.908 40.64 244.996 42.3055C245.083 43.9836 243.834 45.4362 242.162 45.5864C236.06 46.175 225.233 51.0589 221.49 56.1431C220.707 57.2075 220.251 59.7747 219.649 62.2917C218.808 65.7855 217.808 69.2417 216.687 70.6943C216.519 70.9197 214.475 73.2239 213.865 73.562C212.4 74.3635 211.226 73.9001 210.56 73.4743C209.894 73.0485 209.139 72.2095 208.838 70.8195C208.523 69.3669 208.789 66.3864 208.74 65.7478C208.562 63.4311 208.098 58.8854 207.151 54.9784C206.64 52.8746 206.095 50.9336 205.194 49.9694C201.859 46.4004 196.526 46.9264 192.035 47.515C191.519 47.5776 191.003 47.6528 190.489 47.7154C188.66 48.2538 186.719 48.6545 184.667 48.8924C181.569 49.2556 181.06 46.4129 181.032 46.2251C180.974 45.8119 180.76 43.6831 183.095 42.8315C183.35 42.7439 185.23 42.3306 185.954 42.1678C186.963 41.9424 187.983 41.7671 189.007 41.6043C199.584 38.3234 205.329 29.1067 206.296 18.8131ZM209.926 30.1963C213.919 38.4361 219.979 42.4183 227.162 44.2215H227.16C222.676 46.5633 218.596 49.4936 216.434 52.4364C215.613 53.5509 214.86 55.7924 214.181 58.3094C213.814 55.9677 213.317 53.4757 212.661 51.3468C211.914 48.9174 210.909 46.9014 209.787 45.6993C207.621 43.3826 204.903 42.0927 201.981 41.4541C205.479 38.361 208.132 34.504 209.926 30.1963Z" fill="#F5FA93"/>
</svg>
